<svg xmlns="http://www.w3.org/2000/svg" version="1.1" xmlns:xlink="http://www.w3.org/1999/xlink" width="2000" height="1500" viewBox="0 0 2000 1500"><rect width="2000" height="1500" x="0" y="0" id="background" stroke="transparent" fill="#ff0000"></rect><svg xml:space="preserve" width="1500" height="1125" data-version="2" data-id="lg_d7rt22WOsMdkoHjZku" viewBox="0 0 365 444" x="250" y="187.5"><rect width="100%" height="100%" fill="transparent"></rect><path fill="#fff" d="M95.13 438.27q-26.48 0-44.17-8.3-17.69-8.31-27.93-24.32-10.23-16-14.56-38.99-4.33-22.99-4.33-52.36v-37.79h61.14v42.6q0 34.19 5.78 49.11 5.78 14.93 22.87 14.93 11.55 0 17.45-5.42 5.9-5.42 7.94-17.33 2.05-11.92 2.05-31.18 0-23.83-9.99-43.57-9.99-19.74-30.21-40.92l-31.29-32.26q-13-13.48-23.48-28.64-10.47-15.17-16.61-33.82-6.13-18.66-6.13-41.77 0-33.46 8.18-56.57 8.19-23.11 27.68-35.02Q59.02 4.73 92.96 4.73q25.52 0 42.01 7.82 16.49 7.83 25.76 22.87 9.27 15.05 13.12 36.59 3.85 21.55 3.85 49.23v26.24h-59.46v-30.33q0-19.26-2.05-32.02-2.04-12.76-7.58-19.14-5.54-6.38-16.13-6.38-10.11 0-16.37 4.46-6.25 4.45-9.02 13.72-2.77 9.27-2.77 23.95 0 13.24 3.37 22.87t10.35 18.54q6.98 8.9 17.33 19.98l34.91 37.79q25.03 26.96 38.99 56.09 13.97 29.12 13.97 64.99 0 38.04-8.19 63.91-8.18 25.88-27.44 39.12-19.26 13.24-52.48 13.24" paint-order="stroke"></path><rect width="179.58" height="433.54" x="-89.79" y="-216.77" fill="none" rx="0" ry="0" transform="translate(93.95 222)"></rect><path fill="#fff" d="M174.26 433.46V9.79H280.9q33.22 0 49.59 12.99 16.37 13 21.55 38.04 5.17 25.03 5.17 61.14 0 37.31-7.58 58.62-7.58 21.3-30.93 28.52 11.07 1.93 18.53 9.03 7.46 7.1 12.04 20.7 4.57 13.6 6.62 34.91 2.04 21.3 2.04 52.11v13.48q0 11.08.12 26.12.12 15.05.36 29.97.25 14.93.73 25.52t1.2 12.52h-64.51q-.73-1.21-1.09-12.4-.36-11.19-.72-28.53-.36-17.33-.48-37.31-.12-19.98-.12-39.36v-34.3q0-19.02-2.77-28.77-2.77-9.74-10.11-13.6-7.34-3.85-21.06-4.57l-20.7-1.2v200.04Zm64.76-250.11h25.75q11.8 0 17.94-5.3 6.14-5.3 8.42-19.5 2.29-14.2 2.29-40.92v-2.65q0-22.39-2.17-34.42-2.16-12.04-9.02-16.61-6.87-4.58-21.31-4.58h-21.9Z" paint-order="stroke"></path><rect width="186.08" height="423.67" x="-93.04" y="-211.84" fill="none" rx="0" ry="0" transform="translate(267.8 222.13)"></rect></svg></svg>